<?xml version="1.0" encoding="UTF-8"?>
<!DOCTYPE svg PUBLIC "-//W3C//DTD SVG 1.1//EN" "http://www.w3.org/Graphics/SVG/1.1/DTD/svg11.dtd">
<svg xmlns="http://www.w3.org/2000/svg" version="1.1" width="512px" height="512px" style="shape-rendering:geometricPrecision; text-rendering:geometricPrecision; image-rendering:optimizeQuality; fill-rule:evenodd; clip-rule:evenodd" xmlns:xlink="http://www.w3.org/1999/xlink">
<g><path style="opacity:0.991" fill="#eb0028" d="M -0.5,-0.5 C -0.166667,-0.5 0.166667,-0.5 0.5,-0.5C 49.8123,49.1457 99.1456,98.8124 148.5,148.5C 139.64,150.098 131.64,153.598 124.5,159C 117.167,165 110.5,171.667 104.5,179C 98.676,184.128 92.3427,184.795 85.5,181C 78.4037,175.908 71.9037,170.074 66,163.5C 65.1681,175.206 65.5014,186.872 67,198.5C 71.6398,221.551 85.4731,231.384 108.5,228C 125.447,222.289 134.281,210.455 135,192.5C 140.767,182.87 149.267,179.037 160.5,181C 166.447,182.303 171.447,185.136 175.5,189.5C 117.146,248.521 58.479,307.188 -0.5,365.5C -0.5,243.5 -0.5,121.5 -0.5,-0.5 Z"/></g>
<g><path style="opacity:0.977" fill="#0032a0" d="M 65.5,-0.5 C 102.833,-0.5 140.167,-0.5 177.5,-0.5C 177.667,36.8348 177.5,74.1682 177,111.5C 139.632,74.2987 102.465,36.9654 65.5,-0.5 Z"/></g>
<g><path style="opacity:0.98" fill="#eb0028" d="M 208.5,-0.5 C 239.833,-0.5 271.167,-0.5 302.5,-0.5C 302.667,14.1705 302.5,28.8371 302,43.5C 276.832,27.9227 251.665,27.7561 226.5,43C 219.242,48.2561 213.409,54.7561 209,62.5C 208.5,41.5026 208.333,20.5026 208.5,-0.5 Z"/></g>
<g><path style="opacity:0.98" fill="#00329f" d="M 333.5,-0.5 C 370.833,-0.5 408.167,-0.5 445.5,-0.5C 416.868,28.632 388.035,57.632 359,86.5C 357.792,78.5448 356.958,70.5448 356.5,62.5C 348.813,62.5403 341.146,62.207 333.5,61.5C 333.5,40.8333 333.5,20.1667 333.5,-0.5 Z"/></g>
<g><path style="opacity:0.976" fill="#eb0028" d="M 464.5,-0.5 C 480.167,-0.5 495.833,-0.5 511.5,-0.5C 511.5,-0.166667 511.5,0.166667 511.5,0.5C 482.646,28.5203 454.313,57.0203 426.5,86C 414.761,85.1209 405.261,89.2875 398,98.5C 393.106,109.128 386.606,118.628 378.5,127C 369.128,134.292 358.462,138.125 346.5,138.5C 347.418,130.075 348.918,121.742 351,113.5C 389.035,75.632 426.868,37.632 464.5,-0.5 Z"/></g>
<g><path style="opacity:0.975" fill="#435262" d="M 251.5,39.5 C 264.168,38.4678 276.502,39.9678 288.5,44C 290.996,45.0804 293.33,46.4138 295.5,48C 281.171,48.4999 266.837,48.6666 252.5,48.5C 252.666,57.1731 252.5,65.8397 252,74.5C 239.487,85.19 232.487,98.8566 231,115.5C 229.244,135.873 231.244,155.873 237,175.5C 239.743,184.56 242.576,193.56 245.5,202.5C 237.913,202.814 230.413,202.481 223,201.5C 216.596,182.288 210.596,162.955 205,143.5C 198.242,112.291 203.909,83.624 222,57.5C 230.256,48.7943 240.089,42.7943 251.5,39.5 Z"/></g>
<g><path style="opacity:0.969" fill="#425262" d="M 262.5,54.5 C 276.201,54.1886 289.868,54.6886 303.5,56C 306.232,56.413 308.899,57.0797 311.5,58C 322.913,66.9398 335.913,70.7731 350.5,69.5C 350.808,71.924 350.474,74.2573 349.5,76.5C 348.28,76.8869 347.613,77.7202 347.5,79C 351.212,81.5662 352.378,85.0662 351,89.5C 348.917,93.6704 345.917,97.0038 342,99.5C 340.122,92.4745 335.622,89.9745 328.5,92C 323.6,92.5221 318.934,93.8554 314.5,96C 308.514,101.007 307.014,107.174 310,114.5C 313.311,119.781 318.144,122.114 324.5,121.5C 331.008,120.784 337.342,119.617 343.5,118C 341.901,124.823 340.234,131.656 338.5,138.5C 334.639,135.6 330.305,133.767 325.5,133C 316.822,132.039 308.156,131.039 299.5,130C 293.797,126.632 289.963,121.799 288,115.5C 285.305,106.049 282.305,96.7157 279,87.5C 278.167,86 277,84.8333 275.5,84C 271.281,83.8271 267.281,82.8271 263.5,81C 261.959,79.4207 260.792,77.5873 260,75.5C 259.5,68.8417 259.334,62.175 259.5,55.5C 260.791,55.7373 261.791,55.404 262.5,54.5 Z M 291.5,64.5 C 296.368,63.4163 301.368,63.5829 306.5,65C 308.684,67.0165 310.684,69.1831 312.5,71.5C 308.566,74.2025 304.232,75.0358 299.5,74C 296.22,71.2251 293.554,68.0584 291.5,64.5 Z"/></g>
<g><path style="opacity:0.977" fill="#0033a0" d="M 511.5,65.5 C 511.5,102.833 511.5,140.167 511.5,177.5C 474.165,177.667 436.832,177.5 399.5,177C 403.833,172.667 408.167,168.333 412.5,164C 419.167,163.667 425.833,163.333 432.5,163C 433.94,155.197 435.44,147.363 437,139.5C 461.701,114.632 486.535,89.9651 511.5,65.5 Z"/></g>
<g><path style="opacity:0.98" fill="#425262" d="M 253.5,83.5 C 255.886,84.3733 257.886,85.8733 259.5,88C 263.203,90.354 267.203,91.854 271.5,92.5C 257.905,130.361 265.071,163.694 293,192.5C 296.799,195.297 300.299,198.464 303.5,202C 287.5,202.667 271.5,202.667 255.5,202C 241.047,171.123 236.88,138.956 243,105.5C 245.196,97.4443 248.696,90.111 253.5,83.5 Z"/></g>
<g><path style="opacity:0.974" fill="#425262" d="M 419.5,93.5 C 425.5,93.5 431.5,93.5 437.5,93.5C 437.048,96.876 436.382,100.209 435.5,103.5C 430.5,104.167 425.5,104.833 420.5,105.5C 419.691,107.071 419.357,108.738 419.5,110.5C 424.5,110.5 429.5,110.5 434.5,110.5C 434.206,114.1 433.54,117.6 432.5,121C 427.511,121.499 422.511,121.666 417.5,121.5C 417.007,123.806 416.674,126.139 416.5,128.5C 421.5,128.5 426.5,128.5 431.5,128.5C 430.949,131.807 430.616,135.14 430.5,138.5C 425.167,138.5 419.833,138.5 414.5,138.5C 414.643,140.262 414.309,141.929 413.5,143.5C 418.456,144.494 423.456,144.827 428.5,144.5C 428.276,148.179 427.942,151.846 427.5,155.5C 420.492,155.334 413.492,155.5 406.5,156C 399.992,157.173 395.158,160.673 392,166.5C 388.923,173.652 385.59,180.652 382,187.5C 373.665,198.58 362.498,203.58 348.5,202.5C 349.505,188.848 349.671,175.181 349,161.5C 347.986,156.445 346.819,151.445 345.5,146.5C 363.22,146.1 378.053,139.433 390,126.5C 395.501,118.836 400.501,110.836 405,102.5C 408.768,97.5445 413.601,94.5445 419.5,93.5 Z"/></g>
<g><path style="opacity:0.982" fill="#425262" d="M 275.5,107.5 C 278.2,114.061 281.033,120.728 284,127.5C 289.298,134.903 296.465,139.403 305.5,141C 312.467,141.998 319.467,142.664 326.5,143C 335.489,146.332 340.322,152.832 341,162.5C 341.58,175.843 341.413,189.177 340.5,202.5C 332.826,202.666 325.159,202.5 317.5,202C 284.084,179.291 270.084,147.791 275.5,107.5 Z"/></g>
<g><path style="opacity:0.971" fill="#425262" d="M 146.5,156.5 C 183.05,156.552 205.217,174.552 213,210.5C 214.676,229.801 209.676,247.134 198,262.5C 186.832,274.452 172.999,280.619 156.5,281C 151.206,284.435 149.373,289.268 151,295.5C 152.695,298.695 155.195,301.028 158.5,302.5C 159.498,310.472 159.831,318.472 159.5,326.5C 145.121,323.957 135.954,315.623 132,301.5C 127.748,282.894 133.915,269.061 150.5,260C 178.183,259.149 193.516,244.982 196.5,217.5C 194.624,197.886 184.957,183.719 167.5,175C 152.948,170.184 140.782,173.684 131,185.5C 128.696,191.98 127.029,198.647 126,205.5C 117.947,219.301 106.114,224.135 90.5,220C 82.6818,216.181 77.8484,210.014 76,201.5C 74.1227,194.549 73.6227,187.549 74.5,180.5C 85.3786,193.527 97.3786,194.694 110.5,184C 116.956,177.054 123.623,170.387 130.5,164C 135.542,160.643 140.876,158.143 146.5,156.5 Z"/></g>
<g><path style="opacity:0.985" fill="#eb0028" d="M 511.5,208.5 C 511.5,239.833 511.5,271.167 511.5,302.5C 446.166,302.667 380.832,302.5 315.5,302C 311.084,299.042 306.584,296.208 302,293.5C 301.333,292.167 301.333,290.833 302,289.5C 320.469,280.288 339.969,274.621 360.5,272.5C 370.336,273.126 379.669,275.626 388.5,280C 396.827,280.5 405.16,280.666 413.5,280.5C 417.177,256.774 421.177,233.107 425.5,209.5C 454.159,208.5 482.826,208.167 511.5,208.5 Z"/></g>
<g><path style="opacity:0.987" fill="#425262" d="M 225.5,211.5 C 233.86,211.169 242.193,211.502 250.5,212.5C 257.892,230.04 268.225,245.54 281.5,259C 290.751,266.795 301.084,272.795 312.5,277C 281.594,289.207 258.427,310.04 243,339.5C 241.798,342.774 240.798,346.107 240,349.5C 240.295,359.359 238.295,368.692 234,377.5C 231.131,380.704 227.965,383.537 224.5,386C 214.167,390.333 203.833,394.667 193.5,399C 181.376,405.748 176.709,415.915 179.5,429.5C 196.801,432.431 212.801,438.598 227.5,448C 235.114,453.929 237.781,461.762 235.5,471.5C 232.102,471.82 228.768,471.487 225.5,470.5C 223.959,465.879 222.626,461.212 221.5,456.5C 219.167,456.5 216.833,456.5 214.5,456.5C 215.329,461.486 216.663,466.319 218.5,471C 214.129,471.828 209.795,471.661 205.5,470.5C 203.853,465.909 202.519,461.243 201.5,456.5C 199.167,456.5 196.833,456.5 194.5,456.5C 195.289,461.491 196.622,466.324 198.5,471C 193.798,471.828 189.131,471.662 184.5,470.5C 183.167,466.167 181.833,461.833 180.5,457.5C 178.257,456.526 175.924,456.192 173.5,456.5C 174.519,461.243 175.853,465.909 177.5,470.5C 169.167,471.833 160.833,471.833 152.5,470.5C 145.167,445.5 137.833,420.5 130.5,395.5C 147.94,384.992 158.774,369.659 163,349.5C 166.053,333.985 167.553,318.318 167.5,302.5C 195.886,293.946 214.052,275.279 222,246.5C 224.73,234.99 225.897,223.324 225.5,211.5 Z"/></g>
<g><path style="opacity:0.975" fill="#435262" d="M 259.5,211.5 C 286.167,211.5 312.833,211.5 339.5,211.5C 342.277,222.934 349.61,228.934 361.5,229.5C 373.896,228.968 384.229,224.134 392.5,215C 400.538,211.962 408.871,210.795 417.5,211.5C 417.276,215.179 416.942,218.846 416.5,222.5C 411.167,222.5 405.833,222.5 400.5,222.5C 400.739,224.467 400.406,226.301 399.5,228C 404.833,228.333 410.167,228.667 415.5,229C 414.46,232.4 413.794,235.9 413.5,239.5C 408.167,239.5 402.833,239.5 397.5,239.5C 397.5,241.5 397.5,243.5 397.5,245.5C 402.544,245.173 407.544,245.506 412.5,246.5C 411.618,249.791 410.952,253.124 410.5,256.5C 405.489,256.334 400.489,256.501 395.5,257C 394.62,258.356 394.286,259.856 394.5,261.5C 399.5,261.5 404.5,261.5 409.5,261.5C 408.886,265.135 408.552,268.802 408.5,272.5C 402.158,272.666 395.825,272.5 389.5,272C 376.802,265.964 363.469,263.964 349.5,266C 341.413,267.522 333.413,269.355 325.5,271.5C 306.896,267.411 291.396,258.078 279,243.5C 270.617,233.957 264.117,223.29 259.5,211.5 Z"/></g>
<g><path style="opacity:0.984" fill="#425262" d="M 290.5,297.5 C 315.77,306.264 333.937,322.931 345,347.5C 347.513,354.806 349.013,362.306 349.5,370C 333.983,378.171 320.149,388.671 308,401.5C 300.829,409.843 296.995,419.51 296.5,430.5C 314.315,432.826 330.648,438.993 345.5,449C 347.333,450.833 349.167,452.667 351,454.5C 351.499,460.157 351.666,465.824 351.5,471.5C 348.223,471.784 345.057,471.451 342,470.5C 340.515,465.892 339.348,461.226 338.5,456.5C 335.813,456.336 333.146,456.503 330.5,457C 332.337,461.681 333.671,466.514 334.5,471.5C 330.486,471.666 326.486,471.499 322.5,471C 320.619,466.649 319.119,462.149 318,457.5C 315.599,456.398 313.099,456.231 310.5,457C 312.337,461.681 313.671,466.514 314.5,471.5C 310.154,471.666 305.821,471.499 301.5,471C 299.66,466.313 298.327,461.48 297.5,456.5C 294.813,456.336 292.146,456.503 289.5,457C 291.378,461.676 292.711,466.509 293.5,471.5C 285.472,471.831 277.472,471.498 269.5,470.5C 262.087,445.263 255.087,419.929 248.5,394.5C 259.223,393.877 268.389,389.877 276,382.5C 279.493,376.104 278.826,370.104 274,364.5C 267.762,356.961 259.929,351.794 250.5,349C 249.978,348.439 249.645,347.772 249.5,347C 258.294,326.381 271.96,309.881 290.5,297.5 Z"/></g>
<g><path style="opacity:0.978" fill="#00329f" d="M 511.5,333.5 C 511.5,370.833 511.5,408.167 511.5,445.5C 474.035,408.535 436.701,371.368 399.5,334C 436.832,333.5 474.165,333.333 511.5,333.5 Z"/></g>
<g><path style="opacity:0.986" fill="#eb0028" d="M 511.5,510.5 C 511.5,510.833 511.5,511.167 511.5,511.5C 391.167,511.5 270.833,511.5 150.5,511.5C 160.661,500.506 171.328,490.006 182.5,480C 202.164,479.5 221.831,479.333 241.5,479.5C 241.666,470.161 241.5,460.827 241,451.5C 236.114,446.646 230.947,442.146 225.5,438C 232.317,432.017 238.984,425.851 245.5,419.5C 251.954,438.971 257.954,458.638 263.5,478.5C 295.16,479.5 326.826,479.833 358.5,479.5C 358.666,470.494 358.5,461.494 358,452.5C 351.754,445.119 344.254,439.285 335.5,435C 325.18,430.338 314.514,426.671 303.5,424C 309.817,407.344 320.817,394.677 336.5,386C 342.342,382.579 348.342,379.412 354.5,376.5C 355.468,369.16 355.635,361.827 355,354.5C 407.035,406.701 459.201,458.701 511.5,510.5 Z"/></g>
</svg>
